<?xml version="1.0" encoding="utf-8"?>
<!-- Generator: Adobe Illustrator 26.0.1, SVG Export Plug-In . SVG Version: 6.00 Build 0)  -->
<svg version="1.1" id="Layer_1" xmlns="http://www.w3.org/2000/svg" xmlns:xlink="http://www.w3.org/1999/xlink" x="0px" y="0px"
	 viewBox="0 0 256 256" style="enable-background:new 0 0 256 256;" xml:space="preserve">
<style type="text/css">
	.st0{fill:#FFFFFF;}
</style>
<g>
	<g>
		<circle cx="128" cy="128" r="128"/>
	</g>
	<path class="st0" d="M219.87,100.8c-1.45-0.61-4.43-0.57-11.64,0.18c-10.87,1.13-21.42,0.05-31.37-4.65l-3.28-1.54l-0.87-2.49
		c-1.29-3.62-4.27-10.24-6.16-13.66c-7.2-13.03-15.69-21.22-24.34-23.46c-2.53-0.66-5.9-1.03-8.79-0.51
		c-0.99,0.18-1.92,0.46-2.75,0.87c-3.97,1.99-2.75,5.87-1.17,9.04c3.69,7.41,11.26,16.13,19.82,22.83c3.65,2.85,10.2,7.3,12.59,8.54
		c1.47,0.77,1.53,0.85,2.46,3.77c4.29,13.36,6.2,28.04,5.84,44.85c-0.25,11.61-1.24,19.39-3.68,28.91
		c-4.16,16.27-11,27.3-19.63,31.68c-4,2.03-6.28,1.67-9.72-1.54c-6.63-6.18-11.08-19.82-12.5-38.33c-1.37-17.8,1.49-35.6,0.3-53.37
		c-0.7-10.44-3.72-15.28-10.68-17.09c-1.57-0.41-2.96-0.5-5.97-0.4c-7.67,0.27-9.48,1.72-15.46,12.39
		c-6.67,11.9-9.94,25.76-17.33,37.22c-0.33,0.52-0.56,0.97-1.04,1.31c-0.37-0.35-0.35-0.72-0.57-1.15
		c-4.76-14.27-0.82-30.38,1.23-44.81c1.71-12.05,2.66-19.99,2.66-22.44c0-8.75-11.05-17.64-19.56-12.52
		c-1.65,0.99-3.24,4.43,0.02,4.43c0.59,0,0.66,0.19,0.66,1.82c0,8.35-3.57,16.59-5.42,24.63c-3.51,15.33-6.47,52.41,14.36,58.38
		c2.89,0.83,8.27,0.56,10.63-0.54c5.69-2.63,8.15-9.11,10.7-14.4c3.49-7.24,6.44-15.22,10.46-22.37l1.16-2.04l-0.22,7.24
		c-0.47,15.83-0.14,27.82,1,36.81c2.75,21.58,14.06,53.18,40.41,53.18c13.96,0,23.68-9.65,29.38-21.67c3.32-7,5.22-14.59,6.55-22.22
		c3.78-21.62,3.18-43.9-2.23-65.2c12.91,2.9,26.4,4.87,39.52,1.58C220.6,103.15,222.41,101.87,219.87,100.8L219.87,100.8z
		 M147.95,73.23c-3.82-4.72-7.41-10.32-6.62-10.32c0.17,0,1.9,1.53,3.82,3.36c1.92,1.85,4.62,4.84,5.94,6.62
		c2.3,3.05,6.31,9.44,6.31,10.03C157.41,83.43,150.43,76.27,147.95,73.23L147.95,73.23z M147.95,73.23"/>
</g>
</svg>
